
In this jazzy gangster film, reformed killer Tetsu’s attempt to go straight is thwarted when his former cohorts call him back to Tokyo to help battle a rival gang. Director Seijun Suzuki’s onslaught of stylized violence and trippy colors is equal parts Russ Meyer, Samuel Fuller, and Nagisa Oshima—an anything-goes, in-your-face rampage. Tokyo Drifter is a delirious highlight of the brilliantly excessive Japanese cinema of the sixties. (-Criterion)

_______________________________

Rip Specs

Source: Blu-Ray

Format                           : Matroska
File size                        : 2.37 GiB
Duration                         : 1h 22mn
Overall bit rate                 : 4 096 Kbps

Video
ID                               : 1
Format                           : AVC
Format/Info                      : Advanced Video Codec
Format profile                   : High@L4.1
Format settings, CABAC           : Yes
Format settings, ReFrames        : 9 frames
Muxing mode                      : Header stripping
Codec ID                         : V_MPEG4/ISO/AVC
Duration                         : 1h 22mn
Bit rate                         : 3 567 Kbps
Width                            : 1 280 pixels
Height                           : 546 pixels
Display aspect ratio             : 2.35:1
Frame rate                       : 23.976 fps
Color space                      : YUV
Chroma subsampling               : 4:2:0
Bit depth                        : 8 bits
Scan type                        : Progressive
Bits/(Pixel*Frame)               : 0.213
Stream size                      : 2.06 GiB (87%)
Title                            : *** Encoded by Morothar ***
Language                         : Japanese

Audio
ID                               : 2
Format                           : AC-3
Format/Info                      : Audio Coding 3
Mode extension                   : CM (complete main)
Muxing mode                      : Header stripping
Codec ID                         : A_AC3
Duration                         : 1h 22mn
Bit rate mode                    : Constant
Bit rate                         : 448 Kbps
Channel(s)                       : 1 channel
Channel positions                : Front: C
Sampling rate                    : 48.0 KHz
Bit depth                        : 16 bits
Compression mode                 : Lossy
Stream size                      : 266 MiB (11%)
Language                         : Japanese